<svg width="280" height="163" viewBox="0 0 280 163" fill="none" xmlns="http://www.w3.org/2000/svg">
<g clip-path="url(#clip0)">
<path d="M220.597 123.344L220.739 123.277C222.112 122.632 223.472 121.977 224.378 121.524L224.745 121.341L224.766 120.931C225.128 113.821 228.026 110.011 230.354 106.95C231.428 105.536 232.443 104.2 233.06 102.714L233.289 102.164L232.784 101.848C224.503 96.6566 216.546 96.2411 207.006 96.2373L206.177 96.237L206.311 97.0552C207.086 101.796 209.65 106.602 212.13 111.249C214.304 115.319 216.358 119.163 217.073 122.778L217.186 123.345H220.597V123.344Z" fill="#A86439"/>
<path d="M207.005 96.9402C207.759 101.545 210.286 106.298 212.751 110.917C214.944 115.022 217.032 118.94 217.764 122.64H220.44C221.742 122.028 223.126 121.362 224.062 120.894C224.435 113.575 227.389 109.684 229.793 106.523C230.881 105.091 231.832 103.833 232.409 102.443C224.39 97.4159 216.771 96.9441 207.005 96.9402Z" fill="#A86439"/>
<path d="M144.343 123.344L155.092 115.282C155.289 115.135 155.51 115.027 155.748 114.962C167.366 111.824 171.114 97.292 171.269 96.6747C171.292 96.5738 171.324 96.478 171.365 96.3784L171.567 95.8964L171.165 95.5637C166.404 91.6294 162.852 87.1202 160.609 82.1605L160.476 81.8647L160.164 81.7743C158.874 81.4005 156.98 80.7368 155.28 79.6957L154.531 79.2363L154.246 80.0679C153.053 83.552 152.493 91.2716 152.557 97.0959C152.562 97.5518 152.404 97.9979 152.112 98.3512C147.895 103.458 144.98 109.231 142.409 114.324C140.921 117.269 139.515 120.051 138.041 122.248L137.305 123.344H144.343Z" fill="#A86439"/>
<path d="M138.626 122.64H144.108L154.669 114.719C154.937 114.519 155.24 114.371 155.564 114.283C166.889 111.223 170.55 96.6448 170.586 96.5041C170.618 96.3666 170.663 96.2325 170.716 96.1062C166.826 92.8917 162.65 88.3818 159.968 82.4502C158.63 82.0624 156.676 81.376 154.913 80.2955C153.8 83.5447 153.194 90.9592 153.262 97.088C153.269 97.7113 153.054 98.3165 152.656 98.7988C148.502 103.83 145.598 109.572 143.038 114.641C141.51 117.666 140.112 120.426 138.626 122.64Z" fill="#A86439"/>
<path d="M193.691 123.344C194.456 123.344 195.177 123.047 195.722 122.506C196.266 121.963 196.564 121.242 196.564 120.475V114.014C196.564 113.646 196.668 113.289 196.865 112.983C208.362 94.8394 197.517 82.0372 197.049 81.5008C196.344 80.7011 196.42 79.4763 197.215 78.7686C197.568 78.4563 198.025 78.2835 198.499 78.2835C199.053 78.2835 199.582 78.521 199.949 78.9351C200.089 79.0934 203.397 82.863 205.061 89.2359C205.283 90.0898 205.468 90.972 205.611 91.8564L205.734 92.6153L206.479 92.4262C206.646 92.3839 206.8 92.3632 206.95 92.3632C220.017 92.3632 230.185 93.2081 242.059 104.143C249.045 110.574 260.128 114.894 266.095 114.894C267.163 114.894 268.031 115.763 268.031 116.831V123.344H270.416L275.089 111.666L270.36 106.936C270.137 106.714 269.97 106.435 269.877 106.132C265.824 92.8958 253.018 57.1686 242.567 50.8998C238.434 48.4195 226.455 44.9602 216.334 44.9602C214.032 44.9602 211.95 45.1429 210.146 45.5043C207.455 46.0426 204.914 46.3158 202.594 46.3158C196.448 46.3158 192.583 44.4932 188.845 42.7307C185.622 41.2128 182.847 39.9069 178.786 39.9069C175.641 39.9069 173.364 41.4201 171.162 42.8832C169.183 44.1946 167.154 45.5399 164.704 45.5399C161.633 45.5399 159.458 44.7348 157.539 44.0239C156.581 43.6715 155.593 43.3076 154.501 43.058L153.752 42.8874L153.646 43.6483C153.353 45.7609 152.299 47.3928 152.255 47.4612C151.892 48.0282 151.279 48.3635 150.609 48.3635C150.24 48.3635 149.882 48.2584 149.575 48.0607C148.674 47.4826 148.41 46.2859 148.983 45.3922C149.349 44.7988 150.179 43.002 149.707 41.7075C149.407 40.8925 148.565 40.2549 147.204 39.8117C146.887 39.7082 146.605 39.6576 146.343 39.6576C145.75 39.6576 145.386 39.9231 145.164 40.1224C144.282 40.9094 143.908 42.4404 144.047 43.1074C144.311 44.1691 143.678 45.2235 142.643 45.4836C142.49 45.5212 142.332 45.5409 142.175 45.5409C141.534 45.5409 140.937 45.2244 140.577 44.6937L140.235 44.1904L139.688 44.4553C129.694 49.2877 129.324 53.7128 129.079 56.6408C129.04 57.0836 129.006 57.4733 128.95 57.8553C128.859 58.465 128.579 60.3236 122.455 63.9484L121.971 64.2349L123.536 69.0791L123.921 69.1714C125.18 69.4722 127.414 69.831 130.908 69.831C133.099 69.831 137.177 69.831 140.023 72.4604L140.226 72.6472H150.728C153.01 72.6472 154.993 71.022 155.442 68.783L156.611 62.9382C156.791 62.0367 157.588 61.3824 158.506 61.3824C158.633 61.3824 158.762 61.3952 158.888 61.42C159.396 61.5212 159.834 61.8148 160.12 62.2455C160.407 62.6753 160.508 63.1904 160.406 63.6953L159.237 69.5442C158.847 71.4967 157.777 73.2728 156.227 74.5453L155.579 75.0776L156.215 75.6239C157.449 76.6831 159.954 77.7941 162.307 78.3255C162.93 78.4649 163.445 78.902 163.686 79.4942C168.696 91.9445 181.806 97.9033 182.361 98.151C183.008 98.4302 183.451 99.029 183.526 99.7173L186.151 123.341H193.69V123.344H193.691Z" fill="#C97743"/>
<path d="M122.812 64.5555L124.083 68.4879C125.231 68.762 127.414 69.1284 130.906 69.1284C133.106 69.1284 137.45 69.1284 140.499 71.9449H150.726C152.673 71.9449 154.366 70.5582 154.751 68.6464L155.919 62.802C156.205 61.3725 157.595 60.4471 159.024 60.732C160.453 61.0173 161.383 62.4078 161.094 63.837L159.925 69.6843C159.489 71.8669 158.306 73.7507 156.673 75.0919C157.767 76.032 160.137 77.1163 162.46 77.6407C163.309 77.8307 164.009 78.4258 164.336 79.2318C169.304 91.5752 182.52 97.4541 182.647 97.5104C183.52 97.887 184.122 98.7004 184.224 99.6441L186.78 122.64H193.69C194.271 122.64 194.814 122.414 195.225 122.006C195.634 121.598 195.859 121.052 195.859 120.475V114.014C195.859 113.515 196 113.025 196.271 112.603C207.477 94.9196 196.996 82.5128 196.517 81.9637C195.556 80.8723 195.658 79.2108 196.746 78.2427C197.837 77.2781 199.506 77.3768 200.474 78.4681C200.618 78.6301 204.037 82.5342 205.741 89.0577C205.955 89.8851 206.149 90.7864 206.304 91.744C206.512 91.6914 206.727 91.6596 206.948 91.6596C220.175 91.6596 230.473 92.5185 242.534 103.626C249.399 109.945 260.26 114.191 266.093 114.191C267.551 114.191 268.734 115.374 268.734 116.831V122.64H269.938L274.261 111.836L269.86 107.435C269.554 107.129 269.329 106.752 269.202 106.34C265.171 93.174 252.462 57.6586 242.203 51.5047C237.07 48.4243 220.454 44.1608 210.283 46.1957C199.232 48.4067 193.553 45.7309 188.544 43.3687C185.403 41.8906 182.692 40.6121 178.785 40.6121C175.855 40.6121 173.764 41.9991 171.55 43.4706C169.494 44.8332 167.371 46.2448 164.703 46.2448C161.516 46.2448 159.27 45.4174 157.292 44.6851C156.288 44.3155 155.359 43.9774 154.342 43.745C154.042 45.9032 153.014 47.5825 152.842 47.8464C152.338 48.6347 151.48 49.068 150.606 49.068C150.12 49.068 149.627 48.9343 149.191 48.6525C147.962 47.8639 147.599 46.2406 148.388 45.0121C148.751 44.4241 149.392 42.9036 149.043 41.9495C148.769 41.2032 147.772 40.7384 146.983 40.4815C146.195 40.2246 145.871 40.4319 145.632 40.6471C144.91 41.2914 144.653 42.576 144.734 42.9635C145.086 44.3786 144.226 45.8115 142.812 46.1671C141.706 46.4418 140.593 45.977 139.991 45.0898C130.374 49.7404 130.014 53.8806 129.778 56.7C129.74 57.1365 129.704 57.5449 129.645 57.9569C129.526 58.7534 129.23 60.7568 122.812 64.5555Z" fill="#C97743"/>
<path d="M118.377 61.0029C117.264 61.6088 116.74 62.9255 117.127 64.133L119.475 71.4066C119.697 72.1 120.197 72.667 120.852 72.9802C121.355 73.2196 124.196 74.4097 130.906 74.4097C132.755 74.4097 135.849 74.4097 137.286 76.2262C137.785 76.8601 138.549 77.2262 139.355 77.2262H150.501C148.202 82.162 147.977 92.4106 147.977 96.1876C143.766 101.49 140.76 107.439 138.324 112.262C135.743 117.363 133.075 122.64 130.906 122.64H128.089C126.632 122.64 125.449 123.823 125.449 125.281C125.449 126.742 126.632 127.921 128.089 127.921L144.988 127.921C145.558 127.921 146.115 127.739 146.572 127.393L157.447 119.24C168.977 115.821 173.807 103.88 175.236 99.4123C176.824 100.44 178.186 101.19 179.137 101.68L181.468 122.641H178.785C177.328 122.641 176.145 123.824 176.145 125.281C176.145 126.742 177.328 127.922 178.785 127.922H193.691C195.68 127.922 197.553 127.147 198.958 125.743C200.366 124.335 201.14 122.465 201.14 120.476V114.773C202.784 112.083 203.988 109.488 204.844 107.021C205.865 109.228 207.006 111.365 208.093 113.404C209.871 116.737 211.575 119.934 212.339 122.641H206.949C205.492 122.641 204.309 123.824 204.309 125.281C204.309 126.742 205.492 127.922 206.949 127.922H221.031C221.418 127.922 221.802 127.838 222.151 127.672C222.151 127.672 223.577 127.007 224.999 126.317C225.837 125.912 226.506 125.578 226.995 125.328C228.023 124.796 229.305 124.137 229.305 122.465C229.305 115.896 231.586 112.896 233.997 109.717C234.973 108.436 235.969 107.116 236.758 105.595C237.483 106.193 238.215 106.827 238.958 107.51C244.598 112.703 255.047 118.269 263.454 119.304V122.641H263.278C261.82 122.641 260.637 123.824 260.637 125.281C260.637 126.742 261.82 127.922 263.278 127.922H271.727C272.808 127.922 273.776 127.267 274.177 126.264L279.81 112.18C280.205 111.198 279.972 110.079 279.226 109.332L274.054 104.161C273.213 101.485 269.763 90.7583 265.105 79.4114C257.761 61.5171 250.97 50.6034 244.922 46.9732C238.332 43.0201 220.447 38.7774 209.249 41.0164C199.905 42.8858 195.48 40.798 190.794 38.5908C187.394 36.9885 183.876 35.3305 178.786 35.3305C174.262 35.3305 171.139 37.4043 168.633 39.0693C167.101 40.0871 165.778 40.9632 164.704 40.9632C162.461 40.9632 160.912 40.3933 159.12 39.7312C157.396 39.0938 155.474 38.3867 152.89 38.1967C152.045 37.1617 150.714 36.1442 148.626 35.461C146.154 34.6549 143.806 35.1337 142.011 36.8058C141.279 37.4851 140.719 38.2947 140.307 39.1505C125.433 45.4944 124.838 52.4827 124.517 56.253C124.5 56.4714 124.482 56.6717 124.465 56.8515C123.735 57.7006 121.017 59.563 118.377 61.0029ZM124.083 68.4879L122.812 64.5555C129.23 60.7568 129.526 58.7537 129.646 57.9582C129.705 57.5462 129.741 57.1377 129.779 56.7013C130.015 53.8812 130.374 49.7413 139.992 45.091C140.594 45.9783 141.707 46.4428 142.813 46.1684C144.228 45.8128 145.087 44.3798 144.735 42.9647C144.654 42.577 144.911 41.2924 145.633 40.6483C145.872 40.4335 146.196 40.2259 146.984 40.4828C147.773 40.7394 148.769 41.2045 149.044 41.9508C149.392 42.9049 148.752 44.4254 148.389 45.0134C147.601 46.2419 147.963 47.8652 149.192 48.6538C149.628 48.9355 150.121 49.0693 150.607 49.0693C151.48 49.0693 152.339 48.6363 152.842 47.8477C153.015 47.5838 154.043 45.9045 154.343 43.7463C155.36 43.9787 156.289 44.3165 157.293 44.6864C159.271 45.4186 161.517 46.2461 164.704 46.2461C167.372 46.2461 169.495 44.8344 171.551 43.4719C173.765 42.0004 175.856 40.6133 178.785 40.6133C182.693 40.6133 185.404 41.8915 188.544 43.37C193.554 45.7322 199.233 48.4077 210.284 46.197C220.455 44.1621 237.071 48.4255 242.204 51.506C252.463 57.6598 265.172 93.175 269.203 106.342C269.33 106.754 269.555 107.13 269.861 107.437L274.263 111.836L269.939 122.64H268.735V116.832C268.735 115.374 267.552 114.191 266.095 114.191C260.261 114.191 249.4 109.946 242.536 103.626C230.474 92.5189 220.177 91.6599 206.95 91.6599C206.728 91.6599 206.514 91.6921 206.306 91.7443C206.151 90.7867 205.957 89.8854 205.743 89.058C204.039 82.5345 200.62 78.6301 200.476 78.4684C199.508 77.3771 197.839 77.2784 196.747 78.243C195.659 79.2111 195.557 80.873 196.519 81.964C196.998 82.5132 207.478 94.9199 196.272 112.603C196.001 113.026 195.86 113.515 195.86 114.015V120.475C195.86 121.053 195.635 121.598 195.226 122.007C194.815 122.415 194.272 122.64 193.692 122.64H186.781L184.225 99.6444C184.123 98.7004 183.521 97.8877 182.648 97.5107C182.521 97.4544 169.305 91.5756 164.338 79.2322C164.01 78.4261 163.31 77.8314 162.461 77.641C160.138 77.1163 157.768 76.032 156.674 75.0922C158.307 73.7513 159.49 71.8676 159.927 69.6846L161.095 63.8373C161.384 62.4075 160.454 61.0169 159.025 60.7323C157.596 60.4471 156.205 61.3732 155.92 62.8023L154.752 68.6467C154.368 70.5585 152.675 71.9452 150.728 71.9452H140.501C137.452 69.1287 133.107 69.1287 130.907 69.1287C127.414 69.1281 125.231 68.762 124.083 68.4879ZM144.108 122.64H138.626C140.113 120.426 141.51 117.666 143.038 114.641C145.598 109.572 148.502 103.83 152.656 98.7988C153.054 98.3165 153.268 97.711 153.261 97.0879C153.194 90.9592 153.8 83.5446 154.912 80.2955C156.676 81.376 158.63 82.0627 159.967 82.4501C162.65 88.3821 166.825 92.8917 170.715 96.1061C170.663 96.2325 170.617 96.3662 170.585 96.5041C170.55 96.6445 166.889 111.223 155.563 114.283C155.239 114.371 154.937 114.519 154.669 114.719L144.108 122.64ZM212.751 110.917C210.287 106.298 207.759 101.545 207.006 96.9402C216.772 96.944 224.39 97.4159 232.41 102.443C231.832 103.833 230.882 105.091 229.794 106.523C227.39 109.685 224.436 113.575 224.063 120.894C223.126 121.362 221.743 122.028 220.441 122.64H217.765C217.032 118.94 214.944 115.022 212.751 110.917Z" fill="#3D484A"/>
</g>
<path d="M29.8516 59.3828C29.8516 60.9609 29.5234 62.3984 28.8672 63.6953C28.2266 64.9922 27.3594 66.1641 26.2656 67.2109C25.1875 68.2422 23.9453 69.1406 22.5391 69.9062C21.1484 70.6719 19.6953 71.3125 18.1797 71.8281C16.6797 72.3594 15.1719 72.7578 13.6562 73.0234C12.1562 73.3047 10.7656 73.4688 9.48438 73.5156L9.15625 72.3438C10.1875 72.125 11.2812 71.8359 12.4375 71.4766C13.5938 71.1328 14.7344 70.7031 15.8594 70.1875C17 69.6875 18.0781 69.1016 19.0938 68.4297C20.125 67.7578 21.0312 66.9922 21.8125 66.1328C22.5938 65.2578 23.2109 64.2969 23.6641 63.25C24.1328 62.1875 24.3672 61.0156 24.3672 59.7344C24.3672 58.7656 24.1406 57.8906 23.6875 57.1094C23.25 56.3125 22.6719 55.6406 21.9531 55.0938C21.25 54.5312 20.4453 54.1016 19.5391 53.8047C18.6484 53.4922 17.75 53.3359 16.8438 53.3359C15.7656 53.3359 14.7031 53.4688 13.6562 53.7344C12.6094 53.9844 11.5781 54.3047 10.5625 54.6953L10.1641 53.7344C10.8672 53.4219 11.6094 53.0469 12.3906 52.6094C13.1875 52.1719 13.9609 51.6875 14.7109 51.1562C15.4766 50.6094 16.2031 50.0156 16.8906 49.375C17.5781 48.7188 18.1797 48.0234 18.6953 47.2891C19.2266 46.5391 19.6484 45.7578 19.9609 44.9453C20.2734 44.1172 20.4297 43.25 20.4297 42.3438C20.4297 41.7656 20.3359 41.2422 20.1484 40.7734C19.9766 40.2891 19.7188 39.875 19.375 39.5312C19.0312 39.1719 18.6172 38.8984 18.1328 38.7109C17.6641 38.5078 17.1406 38.4062 16.5625 38.4062C15.625 38.4062 14.7969 38.6094 14.0781 39.0156C13.375 39.4219 12.7578 39.9609 12.2266 40.6328C11.7109 41.3047 11.2734 42.0781 10.9141 42.9531C10.5703 43.8125 10.2891 44.6953 10.0703 45.6016C9.86719 46.5078 9.71875 47.4062 9.625 48.2969C9.53125 49.1719 9.48438 49.9609 9.48438 50.6641V68.7578L4.65625 70.4688V53.2422C4.65625 51.7266 4.82812 50.25 5.17188 48.8125C5.51562 47.375 6.00781 46.0156 6.64844 44.7344C7.30469 43.4375 8.09375 42.25 9.01562 41.1719C9.95312 40.0938 11 39.1719 12.1562 38.4062C13.3281 37.625 14.6016 37.0156 15.9766 36.5781C17.3672 36.1406 18.8359 35.9219 20.3828 35.9219C21.0859 35.9219 21.7656 36.0156 22.4219 36.2031C23.0781 36.3906 23.6484 36.6797 24.1328 37.0703C24.6328 37.4609 25.0312 37.9453 25.3281 38.5234C25.625 39.1016 25.7734 39.7734 25.7734 40.5391C25.7734 41.3672 25.6016 42.1875 25.2578 43C24.9297 43.7969 24.4844 44.5781 23.9219 45.3438C23.3594 46.1094 22.7188 46.8438 22 47.5469C21.2812 48.2344 20.5312 48.875 19.75 49.4688C18.9844 50.0625 18.2188 50.5938 17.4531 51.0625C16.6875 51.5312 15.9844 51.9219 15.3438 52.2344C16.9375 51.8594 18.5703 51.6719 20.2422 51.6719C21.4609 51.6719 22.6406 51.8203 23.7812 52.1172C24.9375 52.3984 25.9609 52.8516 26.8516 53.4766C27.7578 54.0859 28.4844 54.8828 29.0312 55.8672C29.5781 56.8359 29.8516 58.0078 29.8516 59.3828ZM49.6094 65.4297C49.0625 66.1328 48.4609 66.7891 47.8047 67.3984C47.1641 68.0078 46.4609 68.5391 45.6953 68.9922C44.9453 69.4453 44.1484 69.8047 43.3047 70.0703C42.4609 70.3359 41.5859 70.4688 40.6797 70.4688C39.5234 70.4688 38.4609 70.2656 37.4922 69.8594C36.5234 69.4375 35.6875 68.8672 34.9844 68.1484C34.2812 67.4141 33.7344 66.5547 33.3438 65.5703C32.9531 64.5703 32.7578 63.5 32.7578 62.3594C32.7578 61.4219 32.8906 60.5 33.1562 59.5938C33.4219 58.6875 33.7969 57.8359 34.2812 57.0391C34.7656 56.2422 35.3359 55.5078 35.9922 54.8359C36.6641 54.1484 37.3984 53.5625 38.1953 53.0781C38.9922 52.5938 39.8359 52.2188 40.7266 51.9531C41.6172 51.6719 42.5312 51.5312 43.4688 51.5312C44.125 51.5312 44.7422 51.6094 45.3203 51.7656C45.9141 51.9219 46.4375 52.1719 46.8906 52.5156C47.3438 52.8438 47.7031 53.2734 47.9688 53.8047C48.2344 54.3203 48.3672 54.9375 48.3672 55.6562C48.3672 56.25 48.1875 56.875 47.8281 57.5312C47.4844 58.1875 47.0234 58.8438 46.4453 59.5C45.8828 60.1562 45.2422 60.8047 44.5234 61.4453C43.8047 62.0703 43.0703 62.6562 42.3203 63.2031C41.5859 63.7344 40.875 64.2031 40.1875 64.6094C39.5 65.0156 38.8984 65.3281 38.3828 65.5469C38.9609 66.2656 39.6328 66.8516 40.3984 67.3047C41.1641 67.7578 41.9766 67.9844 42.8359 67.9844C43.3828 67.9844 43.9375 67.8828 44.5 67.6797C45.0625 67.4609 45.6016 67.1875 46.1172 66.8594C46.6484 66.5312 47.1484 66.1719 47.6172 65.7812C48.1016 65.3906 48.5312 65.0234 48.9062 64.6797L49.6094 65.4297ZM43.9609 56.5234C43.9609 56.1641 43.8984 55.8203 43.7734 55.4922C43.6641 55.1641 43.5 54.8828 43.2812 54.6484C43.0625 54.3984 42.7969 54.2031 42.4844 54.0625C42.1875 53.9062 41.8438 53.8281 41.4531 53.8281C40.75 53.8281 40.1016 54.0781 39.5078 54.5781C38.9141 55.0625 38.3984 55.6641 37.9609 56.3828C37.5391 57.1016 37.2031 57.8672 36.9531 58.6797C36.7188 59.4766 36.6016 60.1797 36.6016 60.7891C36.6016 61.3828 36.6953 61.9922 36.8828 62.6172C37.0703 63.2422 37.3281 63.8438 37.6562 64.4219C38.2812 64.0781 38.9609 63.6016 39.6953 62.9922C40.4297 62.3828 41.1094 61.7188 41.7344 61C42.375 60.2656 42.9062 59.5078 43.3281 58.7266C43.75 57.9453 43.9609 57.2109 43.9609 56.5234ZM71.3359 67.2109C71.1484 67.6172 70.9141 68 70.6328 68.3594C70.3516 68.7188 70.0234 69.0391 69.6484 69.3203C69.2891 69.6016 68.8906 69.8281 68.4531 70C68.0312 70.1562 67.5859 70.2344 67.1172 70.2344C65.8828 70.2344 64.9922 69.8984 64.4453 69.2266C63.9141 68.5391 63.6484 67.6094 63.6484 66.4375V66.0156C63.3672 66.5469 63.0469 67.0781 62.6875 67.6094C62.3438 68.1406 61.9453 68.6172 61.4922 69.0391C61.0547 69.4609 60.5625 69.8047 60.0156 70.0703C59.4688 70.3359 58.8594 70.4688 58.1875 70.4688C57.1719 70.4688 56.2734 70.2734 55.4922 69.8828C54.7109 69.4922 54.0547 68.9688 53.5234 68.3125C52.9922 67.6406 52.5938 66.8594 52.3281 65.9688C52.0625 65.0781 51.9297 64.1328 51.9297 63.1328C51.9297 61.7734 52.1641 60.4219 52.6328 59.0781C53.1172 57.7188 53.7891 56.5078 54.6484 55.4453C55.5234 54.3828 56.5625 53.5234 57.7656 52.8672C58.9844 52.1953 60.3359 51.8594 61.8203 51.8594C62.4141 51.8594 63.0078 51.9141 63.6016 52.0234C64.1953 52.1328 64.7578 52.3125 65.2891 52.5625C65.8359 52.7969 66.3281 53.1094 66.7656 53.5C67.2188 53.8906 67.5859 54.3672 67.8672 54.9297L64.375 56.4062C64.1875 56.1094 63.9688 55.8281 63.7188 55.5625C63.4844 55.2812 63.2188 55.0391 62.9219 54.8359C62.6406 54.6328 62.3359 54.4688 62.0078 54.3438C61.6797 54.2188 61.3359 54.1562 60.9766 54.1562C60.1641 54.1562 59.4375 54.4062 58.7969 54.9062C58.1719 55.4062 57.6328 56.0234 57.1797 56.7578C56.7422 57.4922 56.4062 58.2734 56.1719 59.1016C55.9375 59.9297 55.8203 60.6797 55.8203 61.3516C55.8203 61.9453 55.875 62.6172 55.9844 63.3672C56.1094 64.1016 56.3203 64.7969 56.6172 65.4531C56.9141 66.1094 57.3047 66.6641 57.7891 67.1172C58.2734 67.5703 58.8828 67.7969 59.6172 67.7969C60.1953 67.7969 60.6953 67.6719 61.1172 67.4219C61.5391 67.1562 61.8984 66.8203 62.1953 66.4141C62.4922 65.9922 62.7344 65.5156 62.9219 64.9844C63.125 64.4375 63.2734 63.8828 63.3672 63.3203C63.4766 62.7578 63.5469 62.2031 63.5781 61.6562C63.625 61.0938 63.6484 60.5938 63.6484 60.1562V58.5391L67.9141 57.0391V66.5547C67.9141 66.8672 67.9922 67.1562 68.1484 67.4219C68.3047 67.6719 68.5469 67.7969 68.875 67.7969C69.2656 67.7969 69.6172 67.6562 69.9297 67.375C70.2578 67.0781 70.5156 66.7812 70.7031 66.4844L71.3359 67.2109ZM86.7109 67.4453C86.4297 67.8828 86.0859 68.2812 85.6797 68.6406C85.2734 68.9844 84.8281 69.2812 84.3438 69.5312C83.8594 69.7812 83.3516 69.9766 82.8203 70.1172C82.2891 70.2578 81.7656 70.3281 81.25 70.3281C80.5625 70.3281 79.9688 70.2031 79.4688 69.9531C78.9844 69.6875 78.5859 69.3438 78.2734 68.9219C77.9609 68.5 77.7266 68.0078 77.5703 67.4453C77.4297 66.8828 77.3594 66.2969 77.3594 65.6875C77.3594 64.8906 77.4766 64.0391 77.7109 63.1328C77.9609 62.2109 78.2891 61.3047 78.6953 60.4141C79.1172 59.5234 79.5938 58.6953 80.125 57.9297C80.6562 57.1641 81.2188 56.5312 81.8125 56.0312C81.2656 56.3906 80.6641 56.6719 80.0078 56.875C79.3672 57.0781 78.7109 57.1797 78.0391 57.1797C77.5547 57.1797 77.1328 57.1406 76.7734 57.0625C76.4141 56.9844 76.0156 56.8359 75.5781 56.6172L73.1406 61.7031L72.1328 61.3047L74.6641 56.125C74.3984 55.9375 74.1094 55.7031 73.7969 55.4219C73.5 55.125 73.2812 54.8359 73.1406 54.5547L76.3984 50.8984C76.5391 51.3203 76.7344 51.75 76.9844 52.1875C77.2344 52.6094 77.5234 52.9922 77.8516 53.3359C78.1953 53.6641 78.5703 53.9375 78.9766 54.1562C79.3984 54.375 79.8516 54.4844 80.3359 54.4844C81.1641 54.4844 81.9688 54.3359 82.75 54.0391C83.5312 53.7266 84.2578 53.3516 84.9297 52.9141L85.5625 53.5469C84.9688 54.0938 84.3672 54.7031 83.7578 55.375C83.1641 56.0312 82.625 56.7344 82.1406 57.4844C81.6562 58.2344 81.2656 59.0234 80.9688 59.8516C80.6719 60.6797 80.5234 61.5156 80.5234 62.3594C80.5234 62.8438 80.5859 63.3906 80.7109 64C80.8516 64.5938 81.0625 65.1641 81.3438 65.7109C81.625 66.2422 81.9766 66.6953 82.3984 67.0703C82.8203 67.4297 83.3281 67.6094 83.9219 67.6094C84.3281 67.6094 84.7188 67.5391 85.0938 67.3984C85.4844 67.2422 85.8359 67.0547 86.1484 66.8359L86.7109 67.4453ZM26.1016 91.5938C25.6016 92.3438 25.0078 93.0469 24.3203 93.7031C23.6328 94.3594 22.875 94.9375 22.0469 95.4375C21.2344 95.9375 20.375 96.3359 19.4688 96.6328C18.5625 96.9141 17.6562 97.0547 16.75 97.0547L16.2109 97.1016C15.6172 97.8516 15.1641 98.5781 14.8516 99.2812C14.5391 99.9844 14.3828 100.812 14.3828 101.766V116.742C14.3828 118.82 13.9375 120.672 13.0469 122.297C12.1719 123.906 10.875 125.297 9.15625 126.469L8.38281 125.578C8.64844 125.281 8.85938 124.945 9.01562 124.57C9.17188 124.18 9.28906 123.781 9.36719 123.375C9.44531 122.969 9.49219 122.562 9.50781 122.156C9.53906 121.734 9.55469 121.336 9.55469 120.961V104.484C9.55469 103.75 9.70312 103.039 10 102.352C10.3125 101.648 10.7031 100.984 11.1719 100.359C11.6406 99.7344 12.1562 99.1484 12.7188 98.6016C13.2969 98.0547 13.8516 97.5547 14.3828 97.1016L6.625 97.0547C6.03125 97.0547 5.5 97.1172 5.03125 97.2422C4.57812 97.3516 4.15625 97.5156 3.76562 97.7344C3.375 97.9531 3 98.2266 2.64062 98.5547C2.28125 98.8828 1.91406 99.2656 1.53906 99.7031L0.859375 98.9766C1.375 98.2734 1.95312 97.5312 2.59375 96.75C3.25 95.9688 3.95312 95.2578 4.70312 94.6172C5.46875 93.9766 6.28125 93.4453 7.14062 93.0234C8.01562 92.6016 8.92969 92.3906 9.88281 92.3906H20.0078C20.4141 92.3906 20.8672 92.3672 21.3672 92.3203C21.8828 92.2734 22.3984 92.1953 22.9141 92.0859C23.4297 91.9766 23.9141 91.8359 24.3672 91.6641C24.8359 91.4766 25.2266 91.2422 25.5391 90.9609L26.1016 91.5938ZM35.6172 123.445C35.3359 123.883 34.9922 124.281 34.5859 124.641C34.1797 124.984 33.7344 125.281 33.25 125.531C32.7656 125.781 32.2578 125.977 31.7266 126.117C31.1953 126.258 30.6719 126.328 30.1562 126.328C29.4688 126.328 28.875 126.203 28.375 125.953C27.8906 125.688 27.4922 125.344 27.1797 124.922C26.8672 124.5 26.6328 124.008 26.4766 123.445C26.3359 122.883 26.2656 122.297 26.2656 121.688C26.2656 120.891 26.3828 120.039 26.6172 119.133C26.8672 118.211 27.1953 117.305 27.6016 116.414C28.0234 115.523 28.5 114.695 29.0312 113.93C29.5625 113.164 30.125 112.531 30.7188 112.031C30.1719 112.391 29.5703 112.672 28.9141 112.875C28.2734 113.078 27.6172 113.18 26.9453 113.18C26.4609 113.18 26.0391 113.141 25.6797 113.062C25.3203 112.984 24.9219 112.836 24.4844 112.617L22.0469 117.703L21.0391 117.305L23.5703 112.125C23.3047 111.938 23.0156 111.703 22.7031 111.422C22.4062 111.125 22.1875 110.836 22.0469 110.555L25.3047 106.898C25.4453 107.32 25.6406 107.75 25.8906 108.188C26.1406 108.609 26.4297 108.992 26.7578 109.336C27.1016 109.664 27.4766 109.938 27.8828 110.156C28.3047 110.375 28.7578 110.484 29.2422 110.484C30.0703 110.484 30.875 110.336 31.6562 110.039C32.4375 109.727 33.1641 109.352 33.8359 108.914L34.4688 109.547C33.875 110.094 33.2734 110.703 32.6641 111.375C32.0703 112.031 31.5312 112.734 31.0469 113.484C30.5625 114.234 30.1719 115.023 29.875 115.852C29.5781 116.68 29.4297 117.516 29.4297 118.359C29.4297 118.844 29.4922 119.391 29.6172 120C29.7578 120.594 29.9688 121.164 30.25 121.711C30.5312 122.242 30.8828 122.695 31.3047 123.07C31.7266 123.43 32.2344 123.609 32.8281 123.609C33.2344 123.609 33.625 123.539 34 123.398C34.3906 123.242 34.7422 123.055 35.0547 122.836L35.6172 123.445ZM57.3203 123.211C57.1328 123.617 56.8984 124 56.6172 124.359C56.3359 124.719 56.0078 125.039 55.6328 125.32C55.2734 125.602 54.875 125.828 54.4375 126C54.0156 126.156 53.5703 126.234 53.1016 126.234C51.8672 126.234 50.9766 125.898 50.4297 125.227C49.8984 124.539 49.6328 123.609 49.6328 122.438V122.016C49.3516 122.547 49.0312 123.078 48.6719 123.609C48.3281 124.141 47.9297 124.617 47.4766 125.039C47.0391 125.461 46.5469 125.805 46 126.07C45.4531 126.336 44.8438 126.469 44.1719 126.469C43.1562 126.469 42.2578 126.273 41.4766 125.883C40.6953 125.492 40.0391 124.969 39.5078 124.312C38.9766 123.641 38.5781 122.859 38.3125 121.969C38.0469 121.078 37.9141 120.133 37.9141 119.133C37.9141 117.773 38.1484 116.422 38.6172 115.078C39.1016 113.719 39.7734 112.508 40.6328 111.445C41.5078 110.383 42.5469 109.523 43.75 108.867C44.9688 108.195 46.3203 107.859 47.8047 107.859C48.3984 107.859 48.9922 107.914 49.5859 108.023C50.1797 108.133 50.7422 108.312 51.2734 108.562C51.8203 108.797 52.3125 109.109 52.75 109.5C53.2031 109.891 53.5703 110.367 53.8516 110.93L50.3594 112.406C50.1719 112.109 49.9531 111.828 49.7031 111.562C49.4688 111.281 49.2031 111.039 48.9062 110.836C48.625 110.633 48.3203 110.469 47.9922 110.344C47.6641 110.219 47.3203 110.156 46.9609 110.156C46.1484 110.156 45.4219 110.406 44.7812 110.906C44.1562 111.406 43.6172 112.023 43.1641 112.758C42.7266 113.492 42.3906 114.273 42.1562 115.102C41.9219 115.93 41.8047 116.68 41.8047 117.352C41.8047 117.945 41.8594 118.617 41.9688 119.367C42.0938 120.102 42.3047 120.797 42.6016 121.453C42.8984 122.109 43.2891 122.664 43.7734 123.117C44.2578 123.57 44.8672 123.797 45.6016 123.797C46.1797 123.797 46.6797 123.672 47.1016 123.422C47.5234 123.156 47.8828 122.82 48.1797 122.414C48.4766 121.992 48.7188 121.516 48.9062 120.984C49.1094 120.438 49.2578 119.883 49.3516 119.32C49.4609 118.758 49.5312 118.203 49.5625 117.656C49.6094 117.094 49.6328 116.594 49.6328 116.156V114.539L53.8984 113.039V122.555C53.8984 122.867 53.9766 123.156 54.1328 123.422C54.2891 123.672 54.5312 123.797 54.8594 123.797C55.25 123.797 55.6016 123.656 55.9141 123.375C56.2422 123.078 56.5 122.781 56.6875 122.484L57.3203 123.211ZM78.4609 123.211C78.2734 123.617 78.0312 124 77.7344 124.359C77.4375 124.719 77.1094 125.039 76.75 125.32C76.3906 125.602 75.9922 125.828 75.5547 126C75.1328 126.156 74.6953 126.234 74.2422 126.234C73.0078 126.234 72.1094 125.898 71.5469 125.227C71 124.539 70.7266 123.609 70.7266 122.438V122.016C70.4609 122.547 70.1562 123.078 69.8125 123.609C69.4688 124.141 69.0703 124.617 68.6172 125.039C68.1797 125.461 67.6797 125.805 67.1172 126.07C66.5703 126.336 65.9531 126.469 65.2656 126.469C64.2188 126.469 63.2969 126.266 62.5 125.859C61.7188 125.438 61.0625 124.883 60.5312 124.195C60 123.492 59.5938 122.68 59.3125 121.758C59.0469 120.836 58.9141 119.867 58.9141 118.852C58.9141 117.539 59.1172 116.219 59.5234 114.891C59.9297 113.562 60.5234 112.359 61.3047 111.281C62.0859 110.203 63.0469 109.328 64.1875 108.656C65.3281 107.969 66.6328 107.625 68.1016 107.625C69.0078 107.625 69.8828 107.844 70.7266 108.281V93.8906L75.0625 92.3906V122.555C75.0625 122.867 75.1328 123.156 75.2734 123.422C75.4297 123.672 75.6797 123.797 76.0234 123.797C76.3828 123.797 76.7188 123.656 77.0312 123.375C77.3438 123.078 77.5938 122.781 77.7812 122.484L78.4609 123.211ZM70.7266 116.156V111.164C70.3672 110.805 69.9609 110.508 69.5078 110.273C69.0703 110.039 68.5859 109.922 68.0547 109.922C67.1328 109.922 66.3516 110.172 65.7109 110.672C65.0703 111.172 64.5469 111.797 64.1406 112.547C63.7344 113.297 63.4375 114.109 63.25 114.984C63.0625 115.844 62.9688 116.648 62.9688 117.398C62.9688 117.992 63.0234 118.664 63.1328 119.414C63.2578 120.148 63.4609 120.844 63.7422 121.5C64.0391 122.141 64.4219 122.688 64.8906 123.141C65.375 123.578 65.9766 123.797 66.6953 123.797C67.2734 123.797 67.7734 123.672 68.1953 123.422C68.6328 123.156 69 122.82 69.2969 122.414C69.5938 121.992 69.8359 121.516 70.0234 120.984C70.2109 120.438 70.3516 119.883 70.4453 119.32C70.5547 118.758 70.625 118.203 70.6562 117.656C70.7031 117.094 70.7266 116.594 70.7266 116.156ZM86.1016 95.4141L84.8594 103.969L82.5625 104.695L81.1562 97.1016L86.1016 95.4141ZM89.3359 123.258C88.9766 124.023 88.5547 124.609 88.0703 125.016C87.6016 125.422 87.1484 125.719 86.7109 125.906C86.1953 126.125 85.6719 126.25 85.1406 126.281C84.4531 126.281 83.8828 126.172 83.4297 125.953C82.9766 125.734 82.6172 125.445 82.3516 125.086C82.0859 124.727 81.8984 124.32 81.7891 123.867C81.6953 123.414 81.6484 122.953 81.6484 122.484V109.336L85.9609 107.859V122.602C85.9609 122.977 86.0469 123.273 86.2188 123.492C86.3906 123.711 86.6094 123.828 86.875 123.844C87.1562 123.844 87.4531 123.742 87.7656 123.539C88.0938 123.336 88.4062 123.008 88.7031 122.555L89.3359 123.258ZM111.625 123.258C111.438 123.664 111.195 124.047 110.898 124.406C110.602 124.766 110.266 125.086 109.891 125.367C109.531 125.648 109.141 125.867 108.719 126.023C108.297 126.195 107.859 126.281 107.406 126.281C106.172 126.281 105.273 125.945 104.711 125.273C104.164 124.586 103.891 123.656 103.891 122.484V112.945C103.891 112.836 103.883 112.711 103.867 112.57C103.867 112.414 103.844 112.273 103.797 112.148C103.75 112.008 103.688 111.891 103.609 111.797C103.531 111.703 103.422 111.656 103.281 111.656C102.844 111.656 102.398 111.922 101.945 112.453C101.508 112.984 101.078 113.672 100.656 114.516C100.25 115.359 99.8672 116.305 99.5078 117.352C99.1641 118.398 98.8594 119.438 98.5938 120.469C98.3281 121.484 98.1172 122.438 97.9609 123.328C97.8203 124.219 97.75 124.93 97.75 125.461L93.4844 126.961V111.211C93.4844 110.898 93.4062 110.617 93.25 110.367C93.0938 110.102 92.8516 109.969 92.5234 109.969C92.1328 109.969 91.7734 110.117 91.4453 110.414C91.1328 110.695 90.8828 110.977 90.6953 111.258L90.0625 110.555C90.25 110.164 90.4844 109.789 90.7656 109.43C91.0625 109.055 91.3906 108.727 91.75 108.445C92.125 108.164 92.5234 107.945 92.9453 107.789C93.3828 107.617 93.8359 107.531 94.3047 107.531C95.5234 107.531 96.3984 107.875 96.9297 108.562C97.4766 109.234 97.75 110.148 97.75 111.305V118.945C97.8906 118.305 98.0781 117.578 98.3125 116.766C98.5625 115.938 98.8594 115.102 99.2031 114.258C99.5469 113.414 99.9297 112.594 100.352 111.797C100.789 110.984 101.266 110.266 101.781 109.641C102.297 109 102.859 108.492 103.469 108.117C104.078 107.727 104.734 107.531 105.438 107.531C106.172 107.531 106.727 107.695 107.102 108.023C107.477 108.336 107.742 108.742 107.898 109.242C108.07 109.727 108.164 110.266 108.18 110.859C108.195 111.453 108.203 112.023 108.203 112.57V122.602C108.203 122.914 108.281 123.203 108.438 123.469C108.594 123.719 108.836 123.844 109.164 123.844C109.523 123.844 109.859 123.703 110.172 123.422C110.5 123.125 110.758 122.836 110.945 122.555L111.625 123.258ZM129.32 124.266C129.32 125.188 129.195 126.125 128.945 127.078C128.695 128.047 128.336 128.992 127.867 129.914C127.414 130.836 126.867 131.703 126.227 132.516C125.586 133.344 124.867 134.062 124.07 134.672C123.289 135.281 122.438 135.766 121.516 136.125C120.609 136.484 119.664 136.664 118.68 136.664C118.055 136.664 117.453 136.562 116.875 136.359C116.312 136.156 115.805 135.836 115.352 135.398L118.445 132.469C118.773 132.906 119.156 133.258 119.594 133.523C120.031 133.789 120.523 133.922 121.07 133.922C121.867 133.922 122.516 133.766 123.016 133.453C123.516 133.156 123.914 132.75 124.211 132.234C124.508 131.734 124.719 131.156 124.844 130.5C124.969 129.859 125.047 129.195 125.078 128.508C125.109 127.82 125.109 127.148 125.078 126.492C125.062 125.836 125.055 125.242 125.055 124.711V122.016C124.773 122.547 124.453 123.078 124.094 123.609C123.75 124.141 123.352 124.617 122.898 125.039C122.461 125.461 121.969 125.805 121.422 126.07C120.875 126.336 120.266 126.469 119.594 126.469C118.578 126.469 117.68 126.273 116.898 125.883C116.117 125.492 115.461 124.969 114.93 124.312C114.398 123.641 114 122.859 113.734 121.969C113.469 121.078 113.336 120.133 113.336 119.133C113.336 118.227 113.445 117.312 113.664 116.391C113.883 115.453 114.188 114.555 114.578 113.695C114.984 112.836 115.477 112.031 116.055 111.281C116.648 110.531 117.305 109.883 118.023 109.336C118.758 108.773 119.562 108.336 120.438 108.023C121.312 107.695 122.242 107.531 123.227 107.531C123.82 107.531 124.414 107.602 125.008 107.742C125.602 107.883 126.164 108.102 126.695 108.398C127.242 108.68 127.734 109.031 128.172 109.453C128.625 109.875 128.992 110.367 129.273 110.93L125.781 112.406C125.594 112.109 125.375 111.812 125.125 111.516C124.891 111.203 124.625 110.922 124.328 110.672C124.047 110.422 123.734 110.219 123.391 110.062C123.062 109.906 122.719 109.828 122.359 109.828C121.828 109.828 121.328 109.953 120.859 110.203C120.406 110.453 119.984 110.781 119.594 111.188C119.219 111.594 118.883 112.062 118.586 112.594C118.289 113.109 118.039 113.648 117.836 114.211C117.633 114.773 117.477 115.328 117.367 115.875C117.273 116.422 117.227 116.914 117.227 117.352C117.227 117.945 117.281 118.617 117.391 119.367C117.516 120.102 117.727 120.797 118.023 121.453C118.32 122.109 118.711 122.664 119.195 123.117C119.68 123.57 120.289 123.797 121.023 123.797C121.602 123.797 122.102 123.672 122.523 123.422C122.945 123.156 123.305 122.82 123.602 122.414C123.898 121.992 124.141 121.516 124.328 120.984C124.531 120.438 124.68 119.883 124.773 119.32C124.883 118.758 124.953 118.203 124.984 117.656C125.031 117.094 125.055 116.594 125.055 116.156V114.539L129.32 113.039V124.266Z" fill="white"/>
<defs>
<clipPath id="clip0">
<rect width="163" height="163" fill="white" transform="matrix(-1 0 0 1 280 0)"/>
</clipPath>
</defs>
</svg>
